<svg xmlns:xlink="http://www.w3.org/1999/xlink" version="1.1" class="highcharts-root" style="font-family: &quot;Lucida Grande&quot;, &quot;Lucida Sans Unicode&quot;, Arial, Helvetica, sans-serif; font-size: 12px;" xmlns="http://www.w3.org/2000/svg" width="600" height="410" viewBox="0 0 600 410"><desc>Created with Highcharts 10.1.0</desc><defs><clipPath id="highcharts-krkesm3-392-"><rect x="0" y="0" width="529" height="295" fill="none"></rect></clipPath><clipPath id="highcharts-krkesm3-454-"><rect x="0" y="0" width="529" height="295" fill="none"></rect></clipPath><clipPath id="highcharts-krkesm3-455-"><rect x="25" y="40" width="529" height="295" fill="none"></rect></clipPath></defs><rect fill="#ffffff" class="highcharts-background" x="0" y="0" width="600" height="410" rx="0" ry="0"></rect><rect fill="none" class="highcharts-plot-background" x="25" y="40" width="529" height="295"></rect><g class="highcharts-grid highcharts-xaxis-grid" data-z-index="1"><path fill="none" stroke="#E7E7E7" stroke-width="1" stroke-dasharray="1,1" data-z-index="1" class="highcharts-grid-line" d="M 37.5 40 L 37.5 335" opacity="1"></path><path fill="none" stroke="#E7E7E7" stroke-width="1" stroke-dasharray="1,1" data-z-index="1" class="highcharts-grid-line" d="M 88.5 40 L 88.5 335" opacity="1"></path><path fill="none" stroke="#E7E7E7" stroke-width="1" stroke-dasharray="1,1" data-z-index="1" class="highcharts-grid-line" d="M 141.5 40 L 141.5 335" opacity="1"></path><path fill="none" stroke="#E7E7E7" stroke-width="1" stroke-dasharray="1,1" data-z-index="1" class="highcharts-grid-line" d="M 193.5 40 L 193.5 335" opacity="1"></path><path fill="none" stroke="#E7E7E7" stroke-width="1" stroke-dasharray="1,1" data-z-index="1" class="highcharts-grid-line" d="M 245.5 40 L 245.5 335" opacity="1"></path><path fill="none" stroke="#E7E7E7" stroke-width="1" stroke-dasharray="1,1" data-z-index="1" class="highcharts-grid-line" d="M 297.5 40 L 297.5 335" opacity="1"></path><path fill="none" stroke="#E7E7E7" stroke-width="1" stroke-dasharray="1,1" data-z-index="1" class="highcharts-grid-line" d="M 349.5 40 L 349.5 335" opacity="1"></path><path fill="none" stroke="#E7E7E7" stroke-width="1" stroke-dasharray="1,1" data-z-index="1" class="highcharts-grid-line" d="M 401.5 40 L 401.5 335" opacity="1"></path><path fill="none" stroke="#E7E7E7" stroke-width="1" stroke-dasharray="1,1" data-z-index="1" class="highcharts-grid-line" d="M 454.5 40 L 454.5 335" opacity="1"></path><path fill="none" stroke="#E7E7E7" stroke-width="1" stroke-dasharray="1,1" data-z-index="1" class="highcharts-grid-line" d="M 505.5 40 L 505.5 335" opacity="1"></path></g><g class="highcharts-grid highcharts-yaxis-grid" data-z-index="1"><path fill="none" stroke="#E7E7E7" stroke-width="1" stroke-dasharray="1,1" data-z-index="1" class="highcharts-grid-line" d="M 25 335.5 L 554 335.5" opacity="1"></path><path fill="none" stroke="#E7E7E7" stroke-width="1" stroke-dasharray="1,1" data-z-index="1" class="highcharts-grid-line" d="M 25 293.5 L 554 293.5" opacity="1"></path><path fill="none" stroke="#E7E7E7" stroke-width="1" stroke-dasharray="1,1" data-z-index="1" class="highcharts-grid-line" d="M 25 242.5 L 554 242.5" opacity="1"></path><path fill="none" stroke="#E7E7E7" stroke-width="1" stroke-dasharray="1,1" data-z-index="1" class="highcharts-grid-line" d="M 25 192.5 L 554 192.5" opacity="1"></path><path fill="none" stroke="#E7E7E7" stroke-width="1" stroke-dasharray="1,1" data-z-index="1" class="highcharts-grid-line" d="M 25 141.5 L 554 141.5" opacity="1"></path><path fill="none" stroke="#E7E7E7" stroke-width="1" stroke-dasharray="1,1" data-z-index="1" class="highcharts-grid-line" d="M 25 91.5 L 554 91.5" opacity="1"></path><path fill="none" stroke="#E7E7E7" stroke-width="1" stroke-dasharray="1,1" data-z-index="1" class="highcharts-grid-line" d="M 25 39.5 L 554 39.5" opacity="1"></path></g><rect fill="none" class="highcharts-plot-border" data-z-index="1" x="25" y="40" width="529" height="295"></rect><g class="highcharts-grid highcharts-yaxis-grid" data-z-index="1"></g><g class="highcharts-axis highcharts-xaxis" data-z-index="2"><path fill="none" class="highcharts-axis-line" stroke="#E6E6E6" stroke-width="1" data-z-index="7" d="M 25 335.5 L 554 335.5"></path></g><g class="highcharts-axis highcharts-yaxis" data-z-index="2"><path fill="none" class="highcharts-tick" stroke="#E7E7E7" stroke-width="0.5" d="M 554 335.25 L 564 335.25" opacity="1"></path><path fill="none" class="highcharts-tick" stroke="#E7E7E7" stroke-width="0.5" d="M 554 293.25 L 564 293.25" opacity="1"></path><path fill="none" class="highcharts-tick" stroke="#E7E7E7" stroke-width="0.5" d="M 554 242.25 L 564 242.25" opacity="1"></path><path fill="none" class="highcharts-tick" stroke="#E7E7E7" stroke-width="0.5" d="M 554 192.25 L 564 192.25" opacity="1"></path><path fill="none" class="highcharts-tick" stroke="#E7E7E7" stroke-width="0.5" d="M 554 141.25 L 564 141.25" opacity="1"></path><path fill="none" class="highcharts-tick" stroke="#E7E7E7" stroke-width="0.5" d="M 554 91.25 L 564 91.25" opacity="1"></path><path fill="none" class="highcharts-tick" stroke="#E7E7E7" stroke-width="0.5" d="M 554 39.75 L 564 39.75" opacity="1"></path><path fill="none" class="highcharts-axis-line" stroke="#E6E6E6" stroke-width="1" data-z-index="7" d="M 554.5 40 L 554.5 335"></path></g><g class="highcharts-axis highcharts-yaxis" data-z-index="2"><path fill="none" class="highcharts-axis-line" stroke="#E6E6E6" stroke-width="1" data-z-index="7" d="M 24.5 40 L 24.5 335"></path></g><g class="highcharts-series-group" data-z-index="3"><g class="highcharts-series highcharts-series-0 highcharts-column-series" data-z-index="4" opacity="1" transform="translate(25,40) scale(1 1)" clip-path="url(#highcharts-krkesm3-454-)"><rect x="1" y="133" width="7" height="163" fill="#4f81bd" opacity="1" class="highcharts-point"></rect><rect x="10" y="215" width="7" height="81" fill="#4f81bd" opacity="1" class="highcharts-point"></rect><rect x="19" y="162" width="7" height="134" fill="#4f81bd" opacity="1" class="highcharts-point"></rect><rect x="27" y="55" width="7" height="241" fill="#4f81bd" opacity="1" class="highcharts-point"></rect><rect x="35" y="36" width="7" height="260" fill="#4f81bd" opacity="1" class="highcharts-point"></rect><rect x="44" y="38" width="7" height="258" fill="#4f81bd" opacity="1" class="highcharts-point"></rect><rect x="53" y="18" width="7" height="278" fill="#4f81bd" opacity="1" class="highcharts-point"></rect><rect x="61" y="19" width="7" height="277" fill="#4f81bd" opacity="1" class="highcharts-point"></rect><rect x="70" y="20" width="7" height="276" fill="#4f81bd" opacity="1" class="highcharts-point"></rect><rect x="79" y="18" width="7" height="278" fill="#4f81bd" opacity="1" class="highcharts-point"></rect><rect x="88" y="72" width="7" height="224" fill="#4f81bd" opacity="1" class="highcharts-point"></rect><rect x="96" y="102" width="7" height="194" fill="#4f81bd" opacity="1" class="highcharts-point"></rect><rect x="105" y="93" width="7" height="203" fill="#4f81bd" opacity="1" class="highcharts-point"></rect><rect x="114" y="216" width="7" height="80" fill="#4f81bd" opacity="1" class="highcharts-point"></rect><rect x="123" y="132" width="7" height="164" fill="#4f81bd" opacity="1" class="highcharts-point"></rect><rect x="131" y="61" width="7" height="235" fill="#4f81bd" opacity="1" class="highcharts-point"></rect><rect x="140" y="97" width="7" height="199" fill="#4f81bd" opacity="1" class="highcharts-point"></rect><rect x="148" y="72" width="7" height="224" fill="#4f81bd" opacity="1" class="highcharts-point"></rect><rect x="157" y="92" width="7" height="204" fill="#4f81bd" opacity="1" class="highcharts-point"></rect><rect x="166" y="105" width="7" height="191" fill="#4f81bd" opacity="1" class="highcharts-point"></rect><rect x="174" y="90" width="7" height="206" fill="#4f81bd" opacity="1" class="highcharts-point"></rect><rect x="183" y="104" width="7" height="192" fill="#4f81bd" opacity="1" class="highcharts-point"></rect><rect x="192" y="154" width="7" height="142" fill="#4f81bd" opacity="1" class="highcharts-point"></rect><rect x="201" y="163" width="7" height="133" fill="#4f81bd" opacity="1" class="highcharts-point"></rect><rect x="209" y="204" width="7" height="92" fill="#4f81bd" opacity="1" class="highcharts-point"></rect><rect x="218" y="256" width="7" height="40" fill="#4f81bd" opacity="1" class="highcharts-point"></rect><rect x="227" y="214" width="7" height="82" fill="#4f81bd" opacity="1" class="highcharts-point"></rect><rect x="235" y="149" width="7" height="147" fill="#4f81bd" opacity="1" class="highcharts-point"></rect><rect x="244" y="205" width="7" height="91" fill="#4f81bd" opacity="1" class="highcharts-point"></rect><rect x="252" y="140" width="7" height="156" fill="#4f81bd" opacity="1" class="highcharts-point"></rect><rect x="261" y="176" width="7" height="120" fill="#4f81bd" opacity="1" class="highcharts-point"></rect><rect x="270" y="173" width="7" height="123" fill="#4f81bd" opacity="1" class="highcharts-point"></rect><rect x="279" y="168" width="7" height="128" fill="#4f81bd" opacity="1" class="highcharts-point"></rect><rect x="287" y="171" width="7" height="125" fill="#4f81bd" opacity="1" class="highcharts-point"></rect><rect x="296" y="178" width="7" height="118" fill="#4f81bd" opacity="1" class="highcharts-point"></rect><rect x="305" y="203" width="7" height="93" fill="#4f81bd" opacity="1" class="highcharts-point"></rect><rect x="313" y="216" width="7" height="80" fill="#4f81bd" opacity="1" class="highcharts-point"></rect><rect x="322" y="277" width="7" height="19" fill="#4f81bd" opacity="1" class="highcharts-point"></rect><rect x="331" y="215" width="7" height="81" fill="#4f81bd" opacity="1" class="highcharts-point"></rect><rect x="339" y="175" width="7" height="121" fill="#4f81bd" opacity="1" class="highcharts-point"></rect><rect x="348" y="129" width="7" height="167" fill="#4f81bd" opacity="1" class="highcharts-point"></rect><rect x="357" y="174" width="7" height="122" fill="#4f81bd" opacity="1" class="highcharts-point"></rect><rect x="366" y="189" width="7" height="107" fill="#4f81bd" opacity="1" class="highcharts-point"></rect><rect x="374" y="137" width="7" height="159" fill="#4f81bd" opacity="1" class="highcharts-point"></rect><rect x="383" y="148" width="7" height="148" fill="#4f81bd" opacity="1" class="highcharts-point"></rect><rect x="392" y="137" width="7" height="159" fill="#4f81bd" opacity="1" class="highcharts-point"></rect><rect x="400" y="164" width="7" height="132" fill="#4f81bd" opacity="1" class="highcharts-point"></rect><rect x="409" y="201" width="7" height="95" fill="#4f81bd" opacity="1" class="highcharts-point"></rect><rect x="418" y="219" width="7" height="77" fill="#4f81bd" opacity="1" class="highcharts-point"></rect><rect x="427" y="269" width="7" height="27" fill="#4f81bd" opacity="1" class="highcharts-point"></rect><rect x="435" y="210" width="7" height="86" fill="#4f81bd" opacity="1" class="highcharts-point"></rect><rect x="443" y="170" width="7" height="126" fill="#4f81bd" opacity="1" class="highcharts-point"></rect><rect x="452" y="166" width="7" height="130" fill="#4f81bd" opacity="1" class="highcharts-point"></rect><rect x="461" y="147" width="7" height="149" fill="#4f81bd" opacity="1" class="highcharts-point"></rect><rect x="470" y="135" width="7" height="161" fill="#4f81bd" opacity="1" class="highcharts-point"></rect><rect x="478" y="121" width="7" height="175" fill="#4f81bd" opacity="1" class="highcharts-point"></rect><rect x="487" y="135" width="7" height="161" fill="#4f81bd" opacity="1" class="highcharts-point"></rect><rect x="496" y="128" width="7" height="168" fill="#4f81bd" opacity="1" class="highcharts-point"></rect><rect x="504" y="156" width="7" height="140" fill="#4f81bd" opacity="1" class="highcharts-point"></rect><rect x="513" y="184" width="7" height="112" fill="#4f81bd" opacity="1" class="highcharts-point"></rect><rect x="522" y="208" width="7" height="88" fill="#4f81bd" opacity="1" class="highcharts-point"></rect></g><g class="highcharts-markers highcharts-series-0 highcharts-column-series" data-z-index="4" opacity="1" transform="translate(25,40) scale(1 1)" clip-path="none"></g></g><text x="24" text-anchor="start" class="highcharts-title" data-z-index="4" style="color: rgb(51, 51, 51); font-size: 1em; fill: rgb(51, 51, 51); font-family: Helvetica; font-weight: bold;" y="30">Romania Residential Building Permits<tspan style="font-size: 10px;"> (Units) </tspan></text><text x="590" text-anchor="end" class="highcharts-subtitle" data-z-index="4" style="color: rgb(128, 128, 128); fill: rgb(128, 128, 128); font-size: 0.8em; font-family: Helvetica;" y="370">Source: tradingeconomics.com | Institutul National de Statistica</text><text x="10" text-anchor="start" class="highcharts-caption" data-z-index="4" style="color: rgb(102, 102, 102); fill: rgb(102, 102, 102);" y="407"></text><g class="highcharts-axis-labels highcharts-xaxis-labels" data-z-index="7"><text x="37.839805825243" text-anchor="middle" transform="translate(0,0)" style="color: rgb(51, 51, 51); cursor: default; font-size: 1em; font-family: Helvetica; fill: rgb(51, 51, 51);" y="350" opacity="1">2021</text><text x="89.484358144552" text-anchor="middle" transform="translate(0,0)" style="color: rgb(51, 51, 51); cursor: default; font-size: 1em; font-family: Helvetica; fill: rgb(51, 51, 51);" y="350" opacity="1">Jul</text><text x="141.98489751888" text-anchor="middle" transform="translate(0,0)" style="color: rgb(51, 51, 51); cursor: default; font-size: 1em; font-family: Helvetica; fill: rgb(51, 51, 51);" y="350" opacity="1">2022</text><text x="193.62944983819" text-anchor="middle" transform="translate(0,0)" style="color: rgb(51, 51, 51); cursor: default; font-size: 1em; font-family: Helvetica; fill: rgb(51, 51, 51);" y="350" opacity="1">Jul</text><text x="246.12998921251" text-anchor="middle" transform="translate(0,0)" style="color: rgb(51, 51, 51); cursor: default; font-size: 1em; font-family: Helvetica; fill: rgb(51, 51, 51);" y="350" opacity="1">2023</text><text x="297.77454153182" text-anchor="middle" transform="translate(0,0)" style="color: rgb(51, 51, 51); cursor: default; font-size: 1em; font-family: Helvetica; fill: rgb(51, 51, 51);" y="350" opacity="1">Jul</text><text x="350.27508090615" text-anchor="middle" transform="translate(0,0)" style="color: rgb(51, 51, 51); cursor: default; font-size: 1em; font-family: Helvetica; fill: rgb(51, 51, 51);" y="350" opacity="1">2024</text><text x="402.20496224379" text-anchor="middle" transform="translate(0,0)" style="color: rgb(51, 51, 51); cursor: default; font-size: 1em; font-family: Helvetica; fill: rgb(51, 51, 51);" y="350" opacity="1">Jul</text><text x="454.70550161812" text-anchor="middle" transform="translate(0,0)" style="color: rgb(51, 51, 51); cursor: default; font-size: 1em; font-family: Helvetica; fill: rgb(51, 51, 51);" y="350" opacity="1">2025</text><text x="506.35005393743" text-anchor="middle" transform="translate(0,0)" style="color: rgb(51, 51, 51); cursor: default; font-size: 1em; font-family: Helvetica; fill: rgb(51, 51, 51);" y="350" opacity="1">Jul</text></g><g class="highcharts-axis-labels highcharts-yaxis-labels" data-z-index="7"><text x="0" text-anchor="start" transform="translate(0,0)" style="color: rgb(51, 51, 51); cursor: default; font-size: 1em; font-family: Helvetica; fill: rgb(51, 51, 51);" visibility="hidden"><tspan class="yLabels_">1.6K</tspan></text><text x="559" text-anchor="start" transform="translate(0,0)" style="color: rgb(51, 51, 51); cursor: default; font-size: 1em; font-family: Helvetica; fill: rgb(51, 51, 51);" y="296" opacity="1"><tspan class="yLabels_">2.1K</tspan></text><text x="559" text-anchor="start" transform="translate(0,0)" style="color: rgb(51, 51, 51); cursor: default; font-size: 1em; font-family: Helvetica; fill: rgb(51, 51, 51);" y="245" opacity="1"><tspan class="yLabels_">2.7K</tspan></text><text x="559" text-anchor="start" transform="translate(0,0)" style="color: rgb(51, 51, 51); cursor: default; font-size: 1em; font-family: Helvetica; fill: rgb(51, 51, 51);" y="195" opacity="1"><tspan class="yLabels_">3.3K</tspan></text><text x="559" text-anchor="start" transform="translate(0,0)" style="color: rgb(51, 51, 51); cursor: default; font-size: 1em; font-family: Helvetica; fill: rgb(51, 51, 51);" y="144" opacity="1"><tspan class="yLabels_">3.9K</tspan></text><text x="559" text-anchor="start" transform="translate(0,0)" style="color: rgb(51, 51, 51); cursor: default; font-size: 1em; font-family: Helvetica; fill: rgb(51, 51, 51);" y="94" opacity="1"><tspan class="yLabels_">4.5K</tspan></text><text x="0" text-anchor="start" transform="translate(0,0)" style="color: rgb(51, 51, 51); cursor: default; font-size: 1em; font-family: Helvetica; fill: rgb(51, 51, 51);" visibility="hidden"><tspan class="yLabels_">5.1K</tspan></text></g><g class="highcharts-axis-labels highcharts-yaxis-labels" data-z-index="7"></g><g class="highcharts-control-points" data-z-index="99" clip-path="url(#highcharts-krkesm3-455-)"></g></svg>